# xmcd CD database file
#
# Track frame offsets:
#	150
#	18467
#	38737
#	59240
#	83287
#	104767
#	124047
#	146652
#	171520
#	188075
#	209827
#	231052
#	254700
#	278942
#	301990
#
# Disc length: 4342 seconds
#
# Revision: 0
# Processed by: cddbd v1.5.1PL0 Copyright (c) Steve Scherf et al.
# Submitted via: CDex 1.60beta1
#
DISCID=e410f40f
DTITLE=Spyro Gyra - Retrospective [CD2]
DYEAR=0
DGENRE=Jazz
TTITLE0=Daddy's Got A New Girl
TTITLE1=Limelight
TTITLE2=Shanghai Gumbo
TTITLE3=The Unknown Soldier
TTITLE4=Fairweather
TTITLE5=Para Ti Latino
TTITLE6=Speakeasy
TTITLE7=Tower Of Babel
TTITLE8=What Exit
TTITLE9=Three Wishes
TTITLE10=Waltz For Isabel
TTITLE11=South Beach
TTITLE12=Breakfast At Igor's
TTITLE13=Ariana
TTITLE14=De La Luz
EXTD=YEAR: 0
EXTT0=
EXTT1=
EXTT2=
EXTT3=
EXTT4=
EXTT5=
EXTT6=
EXTT7=
EXTT8=
EXTT9=
EXTT10=
EXTT11=
EXTT12=
EXTT13=
EXTT14=
PLAYORDER=
